<svg width="182" height="130" viewBox="0 0 182 130" fill="none" xmlns="http://www.w3.org/2000/svg">
<path d="M69.4555 67.492C65.0821 67.492 61.0368 66.7813 57.3195 65.36C53.6568 63.884 50.4588 61.834 47.7255 59.21C45.0468 56.586 42.9421 53.4973 41.4115 49.944C39.9355 46.3907 39.1975 42.5093 39.1975 38.3C39.1975 34.0907 39.9355 30.2093 41.4115 26.656C42.9421 23.1027 45.0741 20.014 47.8075 17.39C50.5408 14.766 53.7388 12.7433 57.4015 11.322C61.1188 9.846 65.1641 9.108 69.5375 9.108C73.9108 9.108 77.9015 9.79133 81.5095 11.158C85.1721 12.5247 88.2881 14.602 90.8575 17.39L87.0855 21.244C84.6801 18.8387 82.0288 17.1167 79.1315 16.078C76.2341 15.0393 73.1181 14.52 69.7835 14.52C66.2301 14.52 62.9501 15.1213 59.9435 16.324C56.9915 17.472 54.3948 19.1393 52.1535 21.326C49.9668 23.458 48.2448 25.9727 46.9875 28.87C45.7848 31.7127 45.1835 34.856 45.1835 38.3C45.1835 41.6893 45.7848 44.8327 46.9875 47.73C48.2448 50.6273 49.9668 53.1693 52.1535 55.356C54.3948 57.488 56.9915 59.1553 59.9435 60.358C62.9501 61.506 66.2028 62.08 69.7015 62.08C72.9815 62.08 76.0701 61.588 78.9675 60.604C81.9195 59.62 84.6255 57.9527 87.0855 55.602L90.5295 60.194C87.7961 62.5993 84.5981 64.4307 80.9355 65.688C77.2728 66.8907 73.4461 67.492 69.4555 67.492ZM84.7075 59.456V38.3H90.5295V60.194L84.7075 59.456Z" fill="white"/>
<path d="M94.2935 99.625V42.225H119.057C125.453 42.225 130.401 43.5097 133.899 46.079C137.453 48.6483 139.229 52.2837 139.229 56.985C139.229 60.101 138.491 62.725 137.015 64.857C135.594 66.989 133.626 68.6017 131.111 69.695C128.651 70.7883 125.945 71.335 122.993 71.335L124.387 69.367C128.05 69.367 131.193 69.941 133.817 71.089C136.496 72.1823 138.573 73.8497 140.049 76.091C141.525 78.2777 142.263 81.011 142.263 84.291C142.263 89.1563 140.459 92.9283 136.851 95.607C133.298 98.2857 127.913 99.625 120.697 99.625H94.2935ZM100.361 94.623H120.615C125.645 94.623 129.499 93.7757 132.177 92.081C134.856 90.3317 136.195 87.571 136.195 83.799C136.195 80.0817 134.856 77.3757 132.177 75.681C129.499 73.9317 125.645 73.057 120.615 73.057H99.7055V68.055H118.647C123.239 68.055 126.793 67.1803 129.307 65.431C131.877 63.6817 133.161 61.085 133.161 57.641C133.161 54.1423 131.877 51.5457 129.307 49.851C126.793 48.1017 123.239 47.227 118.647 47.227H100.361V94.623Z" fill="white"/>
<path d="M9.6154 129.126C8.5094 129.126 7.4874 128.944 6.5494 128.58C5.6114 128.202 4.7994 127.677 4.1134 127.005C3.4274 126.333 2.8884 125.542 2.4964 124.632C2.1184 123.722 1.9294 122.728 1.9294 121.65C1.9294 120.572 2.1184 119.578 2.4964 118.668C2.8884 117.758 3.4274 116.967 4.1134 116.295C4.8134 115.623 5.6324 115.105 6.5704 114.741C7.5084 114.363 8.5304 114.174 9.6364 114.174C10.7004 114.174 11.7014 114.356 12.6394 114.72C13.5774 115.07 14.3684 115.602 15.0124 116.316L14.0254 117.303C13.4234 116.687 12.7584 116.246 12.0304 115.98C11.3024 115.7 10.5184 115.56 9.6784 115.56C8.7964 115.56 7.9774 115.714 7.2214 116.022C6.4654 116.316 5.8074 116.743 5.2474 117.303C4.6874 117.849 4.2464 118.493 3.9244 119.235C3.6164 119.963 3.4624 120.768 3.4624 121.65C3.4624 122.532 3.6164 123.344 3.9244 124.086C4.2464 124.814 4.6874 125.458 5.2474 126.018C5.8074 126.564 6.4654 126.991 7.2214 127.299C7.9774 127.593 8.7964 127.74 9.6784 127.74C10.5184 127.74 11.3024 127.6 12.0304 127.32C12.7584 127.04 13.4234 126.592 14.0254 125.976L15.0124 126.963C14.3684 127.677 13.5774 128.216 12.6394 128.58C11.7014 128.944 10.6934 129.126 9.6154 129.126ZM24.4435 129.126C23.3375 129.126 22.3085 128.944 21.3565 128.58C20.4185 128.202 19.5995 127.677 18.8995 127.005C18.2135 126.319 17.6745 125.528 17.2825 124.632C16.9045 123.722 16.7155 122.728 16.7155 121.65C16.7155 120.572 16.9045 119.585 17.2825 118.689C17.6745 117.779 18.2135 116.988 18.8995 116.316C19.5995 115.63 20.4185 115.105 21.3565 114.741C22.2945 114.363 23.3235 114.174 24.4435 114.174C25.5495 114.174 26.5715 114.363 27.5095 114.741C28.4475 115.105 29.2595 115.623 29.9455 116.295C30.6455 116.967 31.1845 117.758 31.5625 118.668C31.9545 119.578 32.1505 120.572 32.1505 121.65C32.1505 122.728 31.9545 123.722 31.5625 124.632C31.1845 125.542 30.6455 126.333 29.9455 127.005C29.2595 127.677 28.4475 128.202 27.5095 128.58C26.5715 128.944 25.5495 129.126 24.4435 129.126ZM24.4435 127.74C25.3255 127.74 26.1375 127.593 26.8795 127.299C27.6355 126.991 28.2865 126.564 28.8325 126.018C29.3925 125.458 29.8265 124.814 30.1345 124.086C30.4425 123.344 30.5965 122.532 30.5965 121.65C30.5965 120.768 30.4425 119.963 30.1345 119.235C29.8265 118.493 29.3925 117.849 28.8325 117.303C28.2865 116.743 27.6355 116.316 26.8795 116.022C26.1375 115.714 25.3255 115.56 24.4435 115.56C23.5615 115.56 22.7425 115.714 21.9865 116.022C21.2305 116.316 20.5725 116.743 20.0125 117.303C19.4665 117.849 19.0325 118.493 18.7105 119.235C18.4025 119.963 18.2485 120.768 18.2485 121.65C18.2485 122.518 18.4025 123.323 18.7105 124.065C19.0325 124.807 19.4665 125.458 20.0125 126.018C20.5725 126.564 21.2305 126.991 21.9865 127.299C22.7425 127.593 23.5615 127.74 24.4435 127.74ZM35.6337 129V114.3H36.9147L47.0577 127.068H46.3857V114.3H47.9187V129H46.6377L36.5157 116.232H37.1877V129H35.6337ZM55.5728 129V115.644H50.4068V114.3H62.2928V115.644H57.1268V129H55.5728ZM61.6851 129L68.4051 114.3H69.9381L76.6581 129H75.0201L68.8461 115.203H69.4761L63.3021 129H61.6851ZM64.3311 125.073L64.7931 123.813H73.3401L73.8021 125.073H64.3311ZM79.0898 129V114.3H85.4318C87.0698 114.3 88.3368 114.629 89.2328 115.287C90.1428 115.945 90.5978 116.876 90.5978 118.08C90.5978 118.878 90.4088 119.55 90.0308 120.096C89.6668 120.642 89.1628 121.055 88.5188 121.335C87.8888 121.615 87.1958 121.755 86.4398 121.755L86.7968 121.251C87.7348 121.251 88.5398 121.398 89.2118 121.692C89.8978 121.972 90.4298 122.399 90.8078 122.973C91.1858 123.533 91.3748 124.233 91.3748 125.073C91.3748 126.319 90.9128 127.285 89.9888 127.971C89.0788 128.657 87.6998 129 85.8518 129H79.0898ZM80.6438 127.719H85.8308C87.1188 127.719 88.1058 127.502 88.7918 127.068C89.4778 126.62 89.8208 125.913 89.8208 124.947C89.8208 123.995 89.4778 123.302 88.7918 122.868C88.1058 122.42 87.1188 122.196 85.8308 122.196H80.4758V120.915H85.3268C86.5028 120.915 87.4128 120.691 88.0568 120.243C88.7148 119.795 89.0438 119.13 89.0438 118.248C89.0438 117.352 88.7148 116.687 88.0568 116.253C87.4128 115.805 86.5028 115.581 85.3268 115.581H80.6438V127.719ZM94.9218 129V114.3H96.4758V129H94.9218ZM101.259 129V114.3H102.813V127.656H111.045V129H101.259ZM113.625 129V114.3H115.179V129H113.625ZM119.962 129V114.3H125.947C127.515 114.3 128.887 114.615 130.063 115.245C131.253 115.861 132.177 116.722 132.835 117.828C133.493 118.934 133.822 120.208 133.822 121.65C133.822 123.092 133.493 124.366 132.835 125.472C132.177 126.578 131.253 127.446 130.063 128.076C128.887 128.692 127.515 129 125.947 129H119.962ZM121.516 127.656H125.863C127.165 127.656 128.292 127.404 129.244 126.9C130.21 126.382 130.959 125.675 131.491 124.779C132.023 123.869 132.289 122.826 132.289 121.65C132.289 120.46 132.023 119.417 131.491 118.521C130.959 117.625 130.21 116.925 129.244 116.421C128.292 115.903 127.165 115.644 125.863 115.644H121.516V127.656ZM134.754 129L141.474 114.3H143.007L149.727 129H148.089L141.915 115.203H142.545L136.371 129H134.754ZM137.4 125.073L137.862 123.813H146.409L146.871 125.073H137.4ZM152.159 129V114.3H158.144C159.712 114.3 161.084 114.615 162.26 115.245C163.45 115.861 164.374 116.722 165.032 117.828C165.69 118.934 166.019 120.208 166.019 121.65C166.019 123.092 165.69 124.366 165.032 125.472C164.374 126.578 163.45 127.446 162.26 128.076C161.084 128.692 159.712 129 158.144 129H152.159ZM153.713 127.656H158.06C159.362 127.656 160.489 127.404 161.441 126.9C162.407 126.382 163.156 125.675 163.688 124.779C164.22 123.869 164.486 122.826 164.486 121.65C164.486 120.46 164.22 119.417 163.688 118.521C163.156 117.625 162.407 116.925 161.441 116.421C160.489 115.903 159.362 115.644 158.06 115.644H153.713V127.656ZM170.895 120.873H178.665V122.196H170.895V120.873ZM171.063 127.656H179.904V129H169.509V114.3H179.589V115.644H171.063V127.656Z" fill="white"/>
</svg>
